<svg xmlns="http://www.w3.org/2000/svg" width="1200" height="630" viewBox="0 0 1200 630" fill="none">

  <defs>
    <linearGradient id="g1" x1="0" y1="0" x2="1" y2="1">
      <stop offset="0" stop-color="#FF4D1A" stop-opacity="0.95"/>
      <stop offset="1" stop-color="#00E5FF" stop-opacity="0.85"/>
    </linearGradient>
    <radialGradient id="g2" cx="0.25" cy="0.2" r="1">
      <stop offset="0" stop-color="#00E5FF" stop-opacity="0.55"/>
      <stop offset="0.55" stop-color="#FF4D1A" stop-opacity="0.25"/>
      <stop offset="1" stop-color="#0B0D10" stop-opacity="0"/>
    </radialGradient>
    <pattern id="grid" width="32" height="32" patternUnits="userSpaceOnUse">
      <path d="M 32 0 L 0 0 0 32" stroke="#EDEDED" stroke-opacity="0.06" stroke-width="1"/>
    </pattern>
    <filter id="glow" x="-50%" y="-50%" width="200%" height="200%">
      <feGaussianBlur stdDeviation="6" result="b"/>
      <feMerge>
        <feMergeNode in="b"/>
        <feMergeNode in="SourceGraphic"/>
      </feMerge>
    </filter>
  </defs>

<rect width="1200" height="630" fill="#0B0D10"/>
<rect width="1200" height="630" fill="url(#g2)"/>
<rect width="1200" height="630" fill="url(#grid)"/>
<path d="M679 242 L465 483" stroke="#FF4D1A" stroke-opacity="0.17870513083283915" stroke-width="1"/>
<path d="M140 495 L506 349" stroke="#00E5FF" stroke-opacity="0.09865113150082598" stroke-width="2"/>
<path d="M694 240 L983 429" stroke="#00E5FF" stroke-opacity="0.11526099457771899" stroke-width="1"/>
<path d="M373 233 L565 344" stroke="#FF4D1A" stroke-opacity="0.09787484886279943" stroke-width="3"/>
<path d="M471 598 L860 832" stroke="#00E5FF" stroke-opacity="0.09908268042482084" stroke-width="2"/>
<path d="M1087 154 L727 79" stroke="#00E5FF" stroke-opacity="0.09362742210958412" stroke-width="3"/>
<path d="M517 31 L170 98" stroke="#FF4D1A" stroke-opacity="0.11944404999819114" stroke-width="1"/>
<path d="M92 456 L398 607" stroke="#00E5FF" stroke-opacity="0.15822532227325747" stroke-width="2"/>
<path d="M1107 496 L758 535" stroke="#00E5FF" stroke-opacity="0.11875526193877803" stroke-width="3"/>
<path d="M795 479 L564 407" stroke="#FF4D1A" stroke-opacity="0.09937737059574617" stroke-width="1"/>
<path d="M1194 157 L1187 140" stroke="#00E5FF" stroke-opacity="0.1610082084835387" stroke-width="1"/>
<path d="M649 76 L530 201" stroke="#00E5FF" stroke-opacity="0.12509336655646172" stroke-width="1"/>
<path d="M1133 221 L869 -5" stroke="#FF4D1A" stroke-opacity="0.13602079156818167" stroke-width="1"/>
<path d="M1026 108 L1446 -84" stroke="#00E5FF" stroke-opacity="0.15601295036682777" stroke-width="2"/>
<circle cx="482" cy="462" r="140" stroke="url(#g1)" stroke-width="3.5" stroke-opacity="0.55"/>
<circle cx="482" cy="462" r="122" stroke="#EDEDED" stroke-width="1" stroke-opacity="0.08"/>
<circle cx="253" cy="460" r="28" fill="#FF4D1A" fill-opacity="0.2784793156319858" filter="url(#glow)"/>
<circle cx="514" cy="466" r="53" fill="#00E5FF" fill-opacity="0.18806414928480014" filter="url(#glow)"/>
<circle cx="202" cy="247" r="45" fill="#FF4D1A" fill-opacity="0.1524602251973892" filter="url(#glow)"/>
<circle cx="848" cy="531" r="58" fill="#00E5FF" fill-opacity="0.15432086810583082" filter="url(#glow)"/>
<circle cx="314" cy="137" r="89" fill="#FF4D1A" fill-opacity="0.2850869922043049" filter="url(#glow)"/>
<circle cx="224" cy="367" r="59" fill="#00E5FF" fill-opacity="0.23858433364296017" filter="url(#glow)"/>
<circle cx="1000" cy="293" r="45" fill="#FF4D1A" fill-opacity="0.23297431765735632" filter="url(#glow)"/>
<circle cx="828" cy="407" r="100" fill="#00E5FF" fill-opacity="0.284339753761584" filter="url(#glow)"/>
<circle cx="883" cy="464" r="90" fill="#FF4D1A" fill-opacity="0.26644915534582253" filter="url(#glow)"/>
<circle cx="578" cy="111" r="62" fill="#00E5FF" fill-opacity="0.2653633069253851" filter="url(#glow)"/>
<rect x="1007" y="281" width="6" height="6" rx="1.5" fill="#EDEDED" fill-opacity="0.27860200041696837"/>
<rect x="829" y="391" width="5" height="5" rx="1.5" fill="#EDEDED" fill-opacity="0.2619577492489592"/>
<rect x="391" y="478" width="6" height="6" rx="1.5" fill="#EDEDED" fill-opacity="0.1233958351351463"/>
<rect x="1029" y="140" width="6" height="6" rx="1.5" fill="#EDEDED" fill-opacity="0.21671961898391862"/>
<rect x="290" y="344" width="6" height="6" rx="1.5" fill="#EDEDED" fill-opacity="0.2732414586959192"/>
<rect x="248" y="106" width="6" height="6" rx="1.5" fill="#EDEDED" fill-opacity="0.2339576708090688"/>
<rect x="452" y="379" width="3" height="3" rx="1.5" fill="#EDEDED" fill-opacity="0.1856551830805363"/>
<rect x="302" y="270" width="6" height="6" rx="1.5" fill="#EDEDED" fill-opacity="0.20809109917730076"/>
<rect x="413" y="480" width="6" height="6" rx="1.5" fill="#EDEDED" fill-opacity="0.22079803933809602"/>
<rect x="289" y="144" width="3" height="3" rx="1.5" fill="#EDEDED" fill-opacity="0.1808458157851702"/>
<rect x="96" y="83" width="4" height="4" rx="1.5" fill="#EDEDED" fill-opacity="0.2625441940421078"/>
<rect x="837" y="480" width="4" height="4" rx="1.5" fill="#EDEDED" fill-opacity="0.12954275329573472"/>
<rect x="211" y="205" width="3" height="3" rx="1.5" fill="#EDEDED" fill-opacity="0.25739809839351"/>
<rect x="163" y="364" width="5" height="5" rx="1.5" fill="#EDEDED" fill-opacity="0.278058944693005"/>
<rect x="842" y="91" width="4" height="4" rx="1.5" fill="#EDEDED" fill-opacity="0.1922594678840749"/>
<rect x="581" y="519" width="6" height="6" rx="1.5" fill="#EDEDED" fill-opacity="0.15161631733452655"/>
<rect x="127" y="546" width="4" height="4" rx="1.5" fill="#EDEDED" fill-opacity="0.18388661420025942"/>
<rect x="899" y="234" width="5" height="5" rx="1.5" fill="#EDEDED" fill-opacity="0.2018465412138022"/>
<g opacity="0.9"><rect x="890" y="56" width="254" height="54" rx="16" fill="#11151B" fill-opacity="0.65" stroke="#EDEDED" stroke-opacity="0.10"/><text x="914" y="91" fill="#EDEDED" fill-opacity="0.78" font-size="18" font-family="ui-sans-serif, system-ui, -apple-system, Segoe UI, Roboto, Arial">Банк Проксима</text></g>

        <g>
          <rect x="72" y="441" width="624" height="126" rx="22" fill="#11151B" fill-opacity="0.75" stroke="#EDEDED" stroke-opacity="0.10"/>
          <text x="108" y="491" fill="#EDEDED" font-size="44" font-family="ui-sans-serif, system-ui, -apple-system, Segoe UI, Roboto, Arial" font-weight="800">Ссоры из‑за денег: почему это не про деньги</text>
          <text x="108" y="529" fill="#EDEDED" fill-opacity="0.70" font-size="22" font-family="ui-sans-serif, system-ui, -apple-system, Segoe UI, Roboto, Arial">PROXIMA · MEDIA</text>
        </g>
        
</svg>